<?xml version="1.0" standalone="no"?>
<!DOCTYPE svg PUBLIC "-//W3C//DTD SVG 20010904//EN"
 "http://www.w3.org/TR/2001/REC-SVG-20010904/DTD/svg10.dtd">
<svg version="1.0" xmlns="http://www.w3.org/2000/svg"
 width="512.000000pt" height="512.000000pt" viewBox="0 0 512.000000 512.000000"
 preserveAspectRatio="xMidYMid meet">
<metadata>
Created by potrace 1.14, written by Peter Selinger 2001-2017
</metadata>
<g transform="translate(0.000000,512.000000) scale(0.100000,-0.100000)"
fill="#000000" stroke="none">
<path d="M4977 3586 c-10 -8 -40 -67 -68 -132 -57 -136 -128 -272 -202 -389
-86 -136 -282 -384 -303 -385 -6 0 -39 25 -75 56 -373 328 -905 593 -1384 690
-269 55 -406 68 -685 69 -245 0 -362 -9 -565 -46 -33 -6 -71 -13 -85 -15 -14
-3 -87 -21 -162 -40 -520 -133 -1032 -423 -1390 -785 -52 -53 -56 -61 -53 -96
3 -30 14 -47 57 -88 453 -425 1003 -696 1633 -804 89 -16 117 -19 305 -36 113
-11 478 -4 550 10 14 2 53 7 88 10 35 4 73 8 85 11 12 2 38 7 57 10 528 83
1067 334 1488 690 52 43 104 87 117 98 23 18 23 18 66 -29 189 -205 409 -551
494 -778 10 -26 29 -57 43 -67 70 -55 155 17 122 103 -34 86 -113 249 -170
352 -72 131 -236 358 -356 492 -31 34 -55 65 -54 70 1 4 16 24 34 43 25 28
170 209 204 255 118 162 317 547 338 653 5 25 -11 60 -35 79 -21 16 -72 16
-94 -1z m-2482 -260 c118 -10 245 -28 335 -46 25 -6 56 -12 70 -14 105 -17
334 -88 508 -157 92 -36 350 -165 373 -185 8 -8 19 -14 23 -14 28 0 406 -278
460 -338 18 -21 18 -22 -11 -49 -116 -107 -236 -200 -380 -293 -54 -35 -109
-71 -123 -80 -76 -50 -319 -164 -474 -221 -127 -48 -365 -115 -386 -109 -3 1
-17 -3 -32 -9 -15 -6 -49 -13 -75 -17 -27 -3 -50 -8 -53 -9 -3 -2 -33 -7 -65
-10 -33 -4 -69 -9 -80 -11 -126 -24 -587 -24 -725 0 -14 2 -49 7 -79 10 -65 8
-276 50 -346 70 -150 43 -205 61 -319 106 -226 89 -448 209 -638 346 -106 76
-268 211 -268 223 0 20 218 202 350 293 438 302 978 486 1504 514 66 4 122 8
124 9 4 3 250 -4 307 -9z"/>
</g>
</svg>
